<svg xmlns="http://www.w3.org/2000/svg" xmlns:xlink="http://www.w3.org/1999/xlink" width="200" zoomAndPan="magnify" viewBox="0 0 150 112.499997" height="150" preserveAspectRatio="xMidYMid meet" version="1.0"><defs><g/><clipPath id="9d79e36202"><path d="M 3.527344 33.226562 L 20 33.226562 L 20 86.242188 L 3.527344 86.242188 Z M 3.527344 33.226562 " clip-rule="nonzero"/></clipPath><clipPath id="66cd59e47d"><path d="M 130 33.226562 L 146.339844 33.226562 L 146.339844 86.242188 L 130 86.242188 Z M 130 33.226562 " clip-rule="nonzero"/></clipPath></defs><g fill="#5285f5" fill-opacity="1"><g transform="translate(27.598162, 77.65559)"><g><path d="M 9.875 0.4375 C 8.007812 0.4375 6.390625 0.148438 5.015625 -0.421875 C 3.640625 -1.003906 2.578125 -1.820312 1.828125 -2.875 C 1.085938 -3.925781 0.71875 -5.175781 0.71875 -6.625 C 0.71875 -8.0625 1.066406 -9.304688 1.765625 -10.359375 C 2.460938 -11.421875 3.453125 -12.238281 4.734375 -12.8125 C 6.015625 -13.394531 7.53125 -13.6875 9.28125 -13.6875 C 10.539062 -13.6875 11.695312 -13.5 12.75 -13.125 C 13.800781 -12.757812 14.703125 -12.234375 15.453125 -11.546875 C 16.203125 -10.867188 16.738281 -10.0625 17.0625 -9.125 L 14.703125 -8.4375 C 14.390625 -9.425781 13.75 -10.210938 12.78125 -10.796875 C 11.8125 -11.378906 10.660156 -11.671875 9.328125 -11.671875 C 8.109375 -11.671875 7.046875 -11.460938 6.140625 -11.046875 C 5.242188 -10.640625 4.546875 -10.054688 4.046875 -9.296875 C 3.554688 -8.546875 3.3125 -7.65625 3.3125 -6.625 C 3.3125 -5.601562 3.578125 -4.710938 4.109375 -3.953125 C 4.648438 -3.203125 5.414062 -2.617188 6.40625 -2.203125 C 7.40625 -1.796875 8.570312 -1.59375 9.90625 -1.59375 C 10.9375 -1.59375 11.863281 -1.738281 12.6875 -2.03125 C 13.519531 -2.332031 14.21875 -2.757812 14.78125 -3.3125 C 15.351562 -3.863281 15.753906 -4.507812 15.984375 -5.25 L 18.390625 -4.6875 C 18.097656 -3.644531 17.550781 -2.738281 16.75 -1.96875 C 15.945312 -1.207031 14.957031 -0.613281 13.78125 -0.1875 C 12.613281 0.226562 11.3125 0.4375 9.875 0.4375 Z M 9.875 0.4375 "/></g></g></g><g fill="#5285f5" fill-opacity="1"><g transform="translate(46.502524, 77.65559)"><g><path d="M 9.96875 -14.59375 L 9.578125 -15.1875 L 12.875 -17.390625 L 13.265625 -16.78125 Z M 9.953125 0.46875 C 8.578125 0.46875 7.320312 0.296875 6.1875 -0.046875 C 5.0625 -0.390625 4.085938 -0.875 3.265625 -1.5 C 2.453125 -2.132812 1.820312 -2.882812 1.375 -3.75 C 0.9375 -4.625 0.71875 -5.582031 0.71875 -6.625 C 0.71875 -7.675781 0.9375 -8.632812 1.375 -9.5 C 1.820312 -10.375 2.453125 -11.128906 3.265625 -11.765625 C 4.085938 -12.398438 5.0625 -12.890625 6.1875 -13.234375 C 7.320312 -13.578125 8.578125 -13.75 9.953125 -13.75 C 11.328125 -13.75 12.582031 -13.578125 13.71875 -13.234375 C 14.851562 -12.890625 15.828125 -12.398438 16.640625 -11.765625 C 17.460938 -11.128906 18.09375 -10.375 18.53125 -9.5 C 18.976562 -8.632812 19.203125 -7.675781 19.203125 -6.625 C 19.203125 -5.582031 18.976562 -4.625 18.53125 -3.75 C 18.09375 -2.882812 17.460938 -2.132812 16.640625 -1.5 C 15.828125 -0.875 14.851562 -0.390625 13.71875 -0.046875 C 12.582031 0.296875 11.328125 0.46875 9.953125 0.46875 Z M 9.953125 -1.5625 C 11.265625 -1.5625 12.414062 -1.773438 13.40625 -2.203125 C 14.40625 -2.628906 15.1875 -3.222656 15.75 -3.984375 C 16.3125 -4.753906 16.59375 -5.632812 16.59375 -6.625 C 16.59375 -7.625 16.3125 -8.503906 15.75 -9.265625 C 15.1875 -10.035156 14.40625 -10.632812 13.40625 -11.0625 C 12.414062 -11.488281 11.265625 -11.703125 9.953125 -11.703125 C 8.648438 -11.703125 7.5 -11.488281 6.5 -11.0625 C 5.5 -10.632812 4.71875 -10.035156 4.15625 -9.265625 C 3.59375 -8.503906 3.3125 -7.625 3.3125 -6.625 C 3.3125 -5.632812 3.59375 -4.753906 4.15625 -3.984375 C 4.71875 -3.222656 5.5 -2.628906 6.5 -2.203125 C 7.5 -1.773438 8.648438 -1.5625 9.953125 -1.5625 Z M 9.953125 -1.5625 "/></g></g></g><g fill="#5285f5" fill-opacity="1"><g transform="translate(66.418616, 77.65559)"><g><path d="M 0.9375 0 L 0.9375 -13.28125 L 9.28125 -13.28125 C 11.789062 -13.28125 13.71875 -12.703125 15.0625 -11.546875 C 16.40625 -10.398438 17.078125 -8.757812 17.078125 -6.625 C 17.078125 -4.507812 16.40625 -2.875 15.0625 -1.71875 C 13.71875 -0.570312 11.789062 0 9.28125 0 Z M 3.5 -1.96875 L 9.046875 -1.96875 C 10.804688 -1.96875 12.160156 -2.367188 13.109375 -3.171875 C 14.054688 -3.984375 14.53125 -5.132812 14.53125 -6.625 C 14.53125 -8.125 14.054688 -9.273438 13.109375 -10.078125 C 12.160156 -10.878906 10.804688 -11.28125 9.046875 -11.28125 L 3.5 -11.28125 Z M 3.5 -1.96875 "/></g></g></g><g fill="#5285f5" fill-opacity="1"><g transform="translate(84.217566, 77.65559)"><g><path d="M 0.9375 0 L 0.9375 -13.28125 L 3.515625 -13.28125 L 3.515625 0 Z M 0.9375 0 "/></g></g></g><g fill="#5285f5" fill-opacity="1"><g transform="translate(88.676672, 77.65559)"><g><path d="M 9.515625 0.4375 C 8.234375 0.4375 7.050781 0.265625 5.96875 -0.078125 C 4.894531 -0.421875 3.960938 -0.90625 3.171875 -1.53125 C 2.390625 -2.15625 1.785156 -2.890625 1.359375 -3.734375 C 0.929688 -4.585938 0.71875 -5.519531 0.71875 -6.53125 C 0.71875 -7.582031 0.929688 -8.546875 1.359375 -9.421875 C 1.796875 -10.296875 2.410156 -11.050781 3.203125 -11.6875 C 4.003906 -12.320312 4.945312 -12.8125 6.03125 -13.15625 C 7.113281 -13.507812 8.3125 -13.6875 9.625 -13.6875 C 10.851562 -13.6875 12 -13.515625 13.0625 -13.171875 C 14.125 -12.835938 15.023438 -12.367188 15.765625 -11.765625 C 16.503906 -11.160156 16.988281 -10.460938 17.21875 -9.671875 L 14.796875 -9.125 C 14.617188 -9.632812 14.273438 -10.082031 13.765625 -10.46875 C 13.253906 -10.851562 12.632812 -11.15625 11.90625 -11.375 C 11.1875 -11.59375 10.425781 -11.703125 9.625 -11.703125 C 8.40625 -11.722656 7.316406 -11.515625 6.359375 -11.078125 C 5.398438 -10.640625 4.648438 -10.035156 4.109375 -9.265625 C 3.578125 -8.492188 3.3125 -7.601562 3.3125 -6.59375 C 3.3125 -5.601562 3.601562 -4.722656 4.1875 -3.953125 C 4.78125 -3.191406 5.585938 -2.59375 6.609375 -2.15625 C 7.640625 -1.71875 8.816406 -1.5 10.140625 -1.5 C 11.304688 -1.5 12.363281 -1.6875 13.3125 -2.0625 C 14.269531 -2.4375 15.03125 -2.941406 15.59375 -3.578125 C 16.164062 -4.222656 16.457031 -4.945312 16.46875 -5.75 L 6.84375 -5.75 L 6.84375 -7.421875 L 18.984375 -7.421875 L 18.984375 0 L 16.875 0 L 16.6875 -2.71875 L 16.671875 -2.71875 C 15.992188 -1.757812 15.03125 -0.992188 13.78125 -0.421875 C 12.539062 0.148438 11.117188 0.4375 9.515625 0.4375 Z M 9.515625 0.4375 "/></g></g></g><g fill="#5285f5" fill-opacity="1"><g transform="translate(108.311722, 77.65559)"><g><path d="M 9.953125 0.46875 C 8.578125 0.46875 7.320312 0.296875 6.1875 -0.046875 C 5.0625 -0.390625 4.085938 -0.875 3.265625 -1.5 C 2.453125 -2.132812 1.820312 -2.882812 1.375 -3.75 C 0.9375 -4.625 0.71875 -5.582031 0.71875 -6.625 C 0.71875 -7.675781 0.9375 -8.632812 1.375 -9.5 C 1.820312 -10.375 2.453125 -11.128906 3.265625 -11.765625 C 4.085938 -12.398438 5.0625 -12.890625 6.1875 -13.234375 C 7.320312 -13.578125 8.578125 -13.75 9.953125 -13.75 C 11.328125 -13.75 12.582031 -13.578125 13.71875 -13.234375 C 14.851562 -12.890625 15.828125 -12.398438 16.640625 -11.765625 C 17.460938 -11.128906 18.09375 -10.375 18.53125 -9.5 C 18.976562 -8.632812 19.203125 -7.675781 19.203125 -6.625 C 19.203125 -5.582031 18.976562 -4.625 18.53125 -3.75 C 18.09375 -2.882812 17.460938 -2.132812 16.640625 -1.5 C 15.828125 -0.875 14.851562 -0.390625 13.71875 -0.046875 C 12.582031 0.296875 11.328125 0.46875 9.953125 0.46875 Z M 9.953125 -1.5625 C 11.265625 -1.5625 12.414062 -1.773438 13.40625 -2.203125 C 14.40625 -2.628906 15.1875 -3.222656 15.75 -3.984375 C 16.3125 -4.753906 16.59375 -5.632812 16.59375 -6.625 C 16.59375 -7.625 16.3125 -8.503906 15.75 -9.265625 C 15.1875 -10.035156 14.40625 -10.632812 13.40625 -11.0625 C 12.414062 -11.488281 11.265625 -11.703125 9.953125 -11.703125 C 8.648438 -11.703125 7.5 -11.488281 6.5 -11.0625 C 5.5 -10.632812 4.71875 -10.035156 4.15625 -9.265625 C 3.59375 -8.503906 3.3125 -7.625 3.3125 -6.625 C 3.3125 -5.632812 3.59375 -4.753906 4.15625 -3.984375 C 4.71875 -3.222656 5.5 -2.628906 6.5 -2.203125 C 7.5 -1.773438 8.648438 -1.5625 9.953125 -1.5625 Z M 9.953125 -1.5625 "/></g></g></g><g fill="#0e073f" fill-opacity="1"><g transform="translate(17.62827, 54.599606)"><g><path d="M 8.1875 -16.703125 L 8.1875 -12 L 17.625 -12 L 17.625 -7.328125 L 8.1875 -7.328125 L 8.1875 0 L 2.140625 0 L 2.140625 -21.390625 L 18.90625 -21.390625 L 18.90625 -16.703125 Z M 8.1875 -16.703125 "/></g></g></g><g fill="#0e073f" fill-opacity="1"><g transform="translate(34.459685, 54.599606)"><g><path d="M 8.921875 -16.828125 C 11.671875 -16.828125 13.765625 -16.203125 15.203125 -14.953125 C 16.648438 -13.703125 17.375 -11.78125 17.375 -9.1875 L 17.375 0 L 11.96875 0 L 11.96875 -2.140625 C 11.132812 -0.523438 9.507812 0.28125 7.09375 0.28125 C 5.800781 0.28125 4.6875 0.0546875 3.75 -0.390625 C 2.820312 -0.835938 2.117188 -1.441406 1.640625 -2.203125 C 1.160156 -2.972656 0.921875 -3.847656 0.921875 -4.828125 C 0.921875 -6.390625 1.519531 -7.601562 2.71875 -8.46875 C 3.914062 -9.34375 5.769531 -9.78125 8.28125 -9.78125 L 11.578125 -9.78125 C 11.472656 -11.53125 10.300781 -12.40625 8.0625 -12.40625 C 7.269531 -12.40625 6.460938 -12.273438 5.640625 -12.015625 C 4.828125 -11.765625 4.140625 -11.414062 3.578125 -10.96875 L 1.625 -14.90625 C 2.539062 -15.519531 3.65625 -15.992188 4.96875 -16.328125 C 6.28125 -16.660156 7.597656 -16.828125 8.921875 -16.828125 Z M 8.703125 -3.390625 C 9.378906 -3.390625 9.96875 -3.550781 10.46875 -3.875 C 10.976562 -4.207031 11.347656 -4.6875 11.578125 -5.3125 L 11.578125 -6.75 L 9.078125 -6.75 C 7.378906 -6.75 6.53125 -6.191406 6.53125 -5.078125 C 6.53125 -4.566406 6.722656 -4.15625 7.109375 -3.84375 C 7.503906 -3.539062 8.035156 -3.390625 8.703125 -3.390625 Z M 8.703125 -3.390625 "/></g></g></g><g fill="#0e073f" fill-opacity="1"><g transform="translate(50.863428, 54.599606)"><g><path d="M 16.28125 -4.34375 L 16.28125 0 L 1.015625 0 L 1.015625 -3.421875 L 8.671875 -12.25 L 1.21875 -12.25 L 1.21875 -16.5625 L 15.96875 -16.5625 L 15.96875 -13.171875 L 8.3125 -4.34375 Z M 16.28125 -4.34375 "/></g></g></g><g fill="#0e073f" fill-opacity="1"><g transform="translate(65.067727, 54.599606)"><g><path d="M 18.78125 -8.25 C 18.78125 -8.207031 18.75 -7.726562 18.6875 -6.8125 L 6.65625 -6.8125 C 6.90625 -5.957031 7.378906 -5.300781 8.078125 -4.84375 C 8.785156 -4.382812 9.664062 -4.15625 10.71875 -4.15625 C 11.507812 -4.15625 12.195312 -4.265625 12.78125 -4.484375 C 13.363281 -4.710938 13.953125 -5.082031 14.546875 -5.59375 L 17.59375 -2.40625 C 15.988281 -0.613281 13.632812 0.28125 10.53125 0.28125 C 8.601562 0.28125 6.90625 -0.0820312 5.4375 -0.8125 C 3.96875 -1.550781 2.832031 -2.570312 2.03125 -3.875 C 1.226562 -5.175781 0.828125 -6.65625 0.828125 -8.3125 C 0.828125 -9.9375 1.21875 -11.394531 2 -12.6875 C 2.78125 -13.976562 3.863281 -14.988281 5.25 -15.71875 C 6.632812 -16.457031 8.191406 -16.828125 9.921875 -16.828125 C 11.578125 -16.828125 13.078125 -16.484375 14.421875 -15.796875 C 15.765625 -15.117188 16.828125 -14.132812 17.609375 -12.84375 C 18.390625 -11.550781 18.78125 -10.019531 18.78125 -8.25 Z M 9.953125 -12.703125 C 9.054688 -12.703125 8.304688 -12.445312 7.703125 -11.9375 C 7.109375 -11.4375 6.726562 -10.742188 6.5625 -9.859375 L 13.34375 -9.859375 C 13.1875 -10.742188 12.804688 -11.4375 12.203125 -11.9375 C 11.597656 -12.445312 10.847656 -12.703125 9.953125 -12.703125 Z M 9.953125 -12.703125 "/></g></g></g><g fill="#0e073f" fill-opacity="1"><g transform="translate(81.899144, 54.599606)"><g><path d="M 19.453125 -22.671875 L 19.453125 0 L 13.921875 0 L 13.921875 -1.65625 C 12.847656 -0.363281 11.234375 0.28125 9.078125 0.28125 C 7.566406 0.28125 6.1875 -0.0664062 4.9375 -0.765625 C 3.695312 -1.472656 2.71875 -2.476562 2 -3.78125 C 1.28125 -5.09375 0.921875 -6.601562 0.921875 -8.3125 C 0.921875 -10.019531 1.28125 -11.519531 2 -12.8125 C 2.71875 -14.101562 3.695312 -15.09375 4.9375 -15.78125 C 6.1875 -16.476562 7.566406 -16.828125 9.078125 -16.828125 C 11.046875 -16.828125 12.570312 -16.257812 13.65625 -15.125 L 13.65625 -22.671875 Z M 10.296875 -4.34375 C 11.296875 -4.34375 12.117188 -4.691406 12.765625 -5.390625 C 13.421875 -6.097656 13.75 -7.070312 13.75 -8.3125 C 13.75 -9.53125 13.425781 -10.484375 12.78125 -11.171875 C 12.144531 -11.867188 11.316406 -12.21875 10.296875 -12.21875 C 9.273438 -12.21875 8.4375 -11.867188 7.78125 -11.171875 C 7.132812 -10.484375 6.8125 -9.53125 6.8125 -8.3125 C 6.8125 -7.070312 7.132812 -6.097656 7.78125 -5.390625 C 8.4375 -4.691406 9.273438 -4.34375 10.296875 -4.34375 Z M 10.296875 -4.34375 "/></g></g></g><g fill="#0e073f" fill-opacity="1"><g transform="translate(100.441238, 54.599606)"><g><path d="M 10.171875 0.28125 C 8.398438 0.28125 6.800781 -0.0820312 5.375 -0.8125 C 3.945312 -1.550781 2.832031 -2.570312 2.03125 -3.875 C 1.226562 -5.175781 0.828125 -6.65625 0.828125 -8.3125 C 0.828125 -9.9375 1.226562 -11.398438 2.03125 -12.703125 C 2.832031 -14.003906 3.941406 -15.015625 5.359375 -15.734375 C 6.773438 -16.460938 8.378906 -16.828125 10.171875 -16.828125 C 11.960938 -16.828125 13.570312 -16.460938 15 -15.734375 C 16.425781 -15.015625 17.535156 -14.007812 18.328125 -12.71875 C 19.117188 -11.425781 19.515625 -9.957031 19.515625 -8.3125 C 19.515625 -6.65625 19.117188 -5.175781 18.328125 -3.875 C 17.535156 -2.570312 16.425781 -1.550781 15 -0.8125 C 13.570312 -0.0820312 11.960938 0.28125 10.171875 0.28125 Z M 10.171875 -4.34375 C 11.191406 -4.34375 12.023438 -4.691406 12.671875 -5.390625 C 13.328125 -6.097656 13.65625 -7.070312 13.65625 -8.3125 C 13.65625 -9.53125 13.328125 -10.484375 12.671875 -11.171875 C 12.023438 -11.867188 11.191406 -12.21875 10.171875 -12.21875 C 9.148438 -12.21875 8.3125 -11.867188 7.65625 -11.171875 C 7.007812 -10.484375 6.6875 -9.53125 6.6875 -8.3125 C 6.6875 -7.070312 7.007812 -6.097656 7.65625 -5.390625 C 8.3125 -4.691406 9.148438 -4.34375 10.171875 -4.34375 Z M 10.171875 -4.34375 "/></g></g></g><g fill="#0e073f" fill-opacity="1"><g transform="translate(118.005803, 54.599606)"><g><path d="M 7.390625 -14.578125 C 7.984375 -15.328125 8.753906 -15.890625 9.703125 -16.265625 C 10.648438 -16.640625 11.734375 -16.828125 12.953125 -16.828125 L 12.953125 -11.609375 C 12.421875 -11.671875 11.984375 -11.703125 11.640625 -11.703125 C 10.398438 -11.703125 9.425781 -11.363281 8.71875 -10.6875 C 8.019531 -10.019531 7.671875 -8.992188 7.671875 -7.609375 L 7.671875 0 L 1.859375 0 L 1.859375 -16.5625 L 7.390625 -16.5625 Z M 7.390625 -14.578125 "/></g></g></g><g clip-path="url(#9d79e36202)"><path fill="#a531b4" d="M 18.261719 39.117188 L 19.734375 39.117188 L 19.734375 33.226562 L 18.261719 33.226562 C 13.382812 33.226562 9.425781 37.183594 9.425781 42.0625 L 9.425781 52.371094 C 9.425781 53.296875 8.992188 54.171875 8.25 54.726562 L 4.714844 57.378906 C 4.007812 57.90625 3.574219 58.726562 3.539062 59.613281 C 3.503906 60.496094 3.863281 61.347656 4.523438 61.933594 L 8.4375 65.414062 C 9.066406 65.972656 9.425781 66.773438 9.425781 67.613281 L 9.425781 77.40625 C 9.425781 82.285156 13.382812 86.242188 18.261719 86.242188 L 19.734375 86.242188 L 19.734375 80.351562 L 18.261719 80.351562 C 16.636719 80.351562 15.316406 79.03125 15.316406 77.40625 L 15.316406 67.613281 C 15.316406 65.089844 14.238281 62.6875 12.351562 61.011719 L 11.132812 59.925781 L 11.78125 59.4375 C 14.007812 57.769531 15.316406 55.152344 15.316406 52.371094 L 15.316406 42.0625 C 15.316406 40.4375 16.636719 39.117188 18.261719 39.117188 Z M 18.261719 39.117188 " fill-opacity="1" fill-rule="evenodd"/></g><g clip-path="url(#66cd59e47d)"><path fill="#a531b4" d="M 132.046875 39.117188 L 130.574219 39.117188 L 130.574219 33.226562 L 132.046875 33.226562 C 136.925781 33.226562 140.882812 37.183594 140.882812 42.0625 L 140.882812 52.371094 C 140.882812 53.296875 141.320312 54.171875 142.0625 54.726562 L 145.597656 57.378906 C 146.304688 57.90625 146.734375 58.726562 146.769531 59.613281 C 146.808594 60.496094 146.445312 61.347656 145.785156 61.933594 L 141.871094 65.414062 C 141.242188 65.972656 140.882812 66.773438 140.882812 67.613281 L 140.882812 77.40625 C 140.882812 82.285156 136.925781 86.242188 132.046875 86.242188 L 130.574219 86.242188 L 130.574219 80.351562 L 132.046875 80.351562 C 133.675781 80.351562 134.992188 79.03125 134.992188 77.40625 L 134.992188 67.613281 C 134.992188 65.089844 136.074219 62.6875 137.960938 61.011719 L 139.175781 59.925781 L 138.527344 59.4375 C 136.300781 57.769531 134.992188 55.152344 134.992188 52.371094 L 134.992188 42.0625 C 134.992188 40.4375 133.675781 39.117188 132.046875 39.117188 Z M 132.046875 39.117188 " fill-opacity="1" fill-rule="evenodd"/></g><g fill="#a531b4" fill-opacity="1"><g transform="translate(18.37177, 69.036583)"><g><path d="M 0.484375 -12.296875 C 1.535156 -12.609375 2.378906 -12.691406 3.015625 -12.546875 C 3.648438 -12.410156 4.203125 -11.984375 4.671875 -11.265625 C 5.148438 -10.554688 5.617188 -9.425781 6.078125 -7.875 C 6.722656 -5.726562 6.894531 -4.144531 6.59375 -3.125 C 6.300781 -2.101562 5.40625 -1.367188 3.90625 -0.921875 C 3.539062 -0.804688 2.457031 -0.566406 0.65625 -0.203125 L -2.609375 -11.09375 C -1.191406 -11.695312 -0.160156 -12.097656 0.484375 -12.296875 Z M 1.765625 -10.78125 C 0.929688 -10.53125 0.410156 -10.359375 0.203125 -10.265625 C -0.00390625 -10.171875 -0.0820312 -10.046875 -0.03125 -9.890625 L 2.15625 -2.609375 C 2.1875 -2.492188 2.269531 -2.445312 2.40625 -2.46875 C 2.539062 -2.5 2.8125 -2.570312 3.21875 -2.6875 C 3.625 -2.8125 3.898438 -2.914062 4.046875 -3 C 4.203125 -3.09375 4.332031 -3.21875 4.4375 -3.375 C 4.539062 -3.53125 4.566406 -3.773438 4.515625 -4.109375 C 4.429688 -4.753906 4.195312 -5.722656 3.8125 -7.015625 C 3 -9.691406 2.316406 -10.945312 1.765625 -10.78125 Z M 1.765625 -10.78125 "/></g></g></g><g fill="#a531b4" fill-opacity="1"><g transform="translate(26.648094, 66.55473)"><g><path d="M 3.5 -8.234375 C 3.882812 -8.347656 4.128906 -8.234375 4.234375 -7.890625 C 4.378906 -7.421875 4.445312 -7.085938 4.4375 -6.890625 C 4.425781 -6.703125 4.300781 -6.570312 4.0625 -6.5 L 1.21875 -5.640625 L 2.140625 -2.546875 L 5.5 -3.5625 C 5.738281 -3.613281 5.910156 -3.613281 6.015625 -3.5625 C 6.128906 -3.519531 6.210938 -3.414062 6.265625 -3.25 C 6.410156 -2.769531 6.460938 -2.425781 6.421875 -2.21875 C 6.390625 -2.007812 6.242188 -1.867188 5.984375 -1.796875 L 0.890625 -0.265625 L 0.578125 -0.4375 L -2.609375 -11.109375 L 2.546875 -12.640625 C 2.953125 -12.753906 3.203125 -12.664062 3.296875 -12.375 C 3.359375 -12.113281 3.398438 -11.898438 3.421875 -11.734375 C 3.453125 -11.578125 3.4375 -11.410156 3.375 -11.234375 C 3.320312 -11.054688 3.203125 -10.941406 3.015625 -10.890625 L -0.21875 -9.921875 L 0.6875 -7.390625 Z M 3.5 -8.234375 "/></g></g></g></svg>